<?xml version="1.0"?><svg width="1052.3622" height="744.09448" xmlns="http://www.w3.org/2000/svg" xmlns:xlink="http://www.w3.org/1999/xlink">
 <title>curtain topper</title>
 <defs>
  <linearGradient id="linearGradient3778">
   <stop id="stop3780" offset="0" stop-color="#a90000"/>
   <stop id="stop3782" offset="1" stop-color="#c11f1f"/>
  </linearGradient>
  <linearGradient id="linearGradient3692">
   <stop id="stop3694" offset="0" stop-color="#e03131"/>
   <stop id="stop3696" offset="1" stop-color="#c50000"/>
  </linearGradient>
  <linearGradient x1="0.000552" y1="0.489668" x2="0.022638" y2="0.489668" id="linearGradient3784" xlink:href="#linearGradient3778" spreadMethod="reflect"/>
  <linearGradient x1="0.498201" y1="0.558788" x2="0.90919" y2="0.558788" id="linearGradient4093" xlink:href="#linearGradient3692" spreadMethod="reflect"/>
 </defs>
 <g>
  <title>Layer 1</title>
  <g id="layer1">
   <g id="g4202">
    <g transform="matrix(0.981878, 0, -0.0504432, 1.38157, -4.09829, 407.426)" id="g3795">
     <path d="m11.212434,-288.672302c-2.494019,0 -4.5,2.326355 -4.5,5.1875l0,148.874985c0,1.413849 0.484253,2.694199 1.28125,3.625c2.824081,-8.239471 10.085586,-14.125 18.625003,-14.125c9.061127,0 16.689056,6.618958 19.09375,15.65625l21.499996,0c2.404694,-9.037292 10.032623,-15.65625 19.09375,-15.65625c9.061127,0 16.689056,6.618958 19.09375,15.65625l21.53125,0c2.404694,-9.037292 10.032623,-15.65625 19.09375,-15.65625c9.061127,0 16.689056,6.618958 19.09375,15.65625l21.53125,0c2.404694,-9.037292 10.032623,-15.65625 19.09375,-15.65625c9.061127,0 16.665253,6.618958 19.0625,15.65625l21.53125,0c2.404678,-9.037292 10.032623,-15.65625 19.09375,-15.65625c9.061127,0 16.689056,6.618958 19.09375,15.65625l21.53125,0c2.404694,-9.037292 10.032623,-15.65625 19.09375,-15.65625c9.061127,0 16.689056,6.618958 19.09375,15.65625l21.53125,0c2.397247,-9.037292 10.001373,-15.65625 19.0625,-15.65625c9.061127,0 16.689056,6.618958 19.09375,15.65625l21.53125,0c2.404694,-9.037292 10.032623,-15.65625 19.09375,-15.65625c9.061127,0 16.689056,6.618958 19.09375,15.65625l21.53125,0c2.404663,-9.037292 10.032593,-15.65625 19.09375,-15.65625c9.061066,0 16.689056,6.618958 19.093719,15.65625l21.5,0c2.404663,-9.037292 10.032654,-15.65625 19.09375,-15.65625c9.061157,0 16.689087,6.618958 19.09375,15.65625l21.53125,0c2.404724,-9.037292 10.032654,-15.65625 19.09375,-15.65625c9.061096,0 16.689026,6.618958 19.09375,15.65625l21.53125,0c2.404724,-9.037292 10.032654,-15.65625 19.09375,-15.65625c9.061096,0 16.689087,6.618958 19.09375,15.65625l21.5,0c2.404663,-9.037292 10.032654,-15.65625 19.09375,-15.65625c9.061157,0 16.689087,6.618958 19.09375,15.65625l21.53125,0c2.404724,-9.037292 10.032654,-15.65625 19.09375,-15.65625c9.061096,0 16.689087,6.618958 19.09375,15.65625l21.53125,0c2.404663,-9.037292 10.032654,-15.65625 19.09375,-15.65625c9.061157,0 16.665283,6.618958 19.0625,15.65625l21.53125,0c2.404724,-9.037292 10.032654,-15.65625 19.09375,-15.65625c9.061096,0 16.689026,6.618958 19.09375,15.65625l21.53125,0c2.404663,-9.037292 10.032654,-15.65625 19.09375,-15.65625c9.061096,0 16.689087,6.618958 19.093811,15.65625l21.531311,0c2.397339,-9.037292 10.001343,-15.65625 19.0625,-15.65625c5.729858,0 10.866455,2.649323 14.5,6.875l0,-145.249985c0,-2.861084 -2.005981,-5.1875 -4.5,-5.1875l-1040.406341,0z" id="rect3455" stroke-width="8" stroke="#800000" fill-rule="evenodd" fill="url(#linearGradient3784)"/>
     <path d="m20.149933,-288.672302c-9.811416,29.717163 -12.682403,123.89212 -13.281249,155.281235c0.192337,0.921173 0.566513,1.754013 1.125,2.40625c2.824081,-8.239471 10.085586,-14.125 18.625003,-14.125c9.061127,0 16.689056,6.618958 19.09375,15.65625l0.78125,0c-0.003296,-24.64389 -0.476563,-127.699448 -12.28125,-159.218735l-14.062504,0z" id="path3457" fill-rule="evenodd" fill="url(#linearGradient4093)"/>
     <use id="use3521" x="59.707298" y="0" width="1052.3622" height="744.09448" xlink:href="#path3457"/>
     <use id="use3523" x="119.414597" y="0" width="1052.3622" height="744.09448" xlink:href="#path3457"/>
     <use id="use3525" x="179.121902" y="0" width="1052.3622" height="744.09448" xlink:href="#path3457"/>
     <use id="use3527" x="238.829193" y="0" width="1052.3622" height="744.09448" xlink:href="#path3457"/>
     <use id="use3529" x="298.536499" y="0" width="1052.3622" height="744.09448" xlink:href="#path3457"/>
     <use id="use3531" x="358.243805" y="0" width="1052.3622" height="744.09448" xlink:href="#path3457"/>
     <use id="use3533" x="417.951111" y="0" width="1052.3622" height="744.09448" xlink:href="#path3457"/>
     <use id="use3535" x="477.658386" y="0" width="1052.3622" height="744.09448" xlink:href="#path3457"/>
     <use id="use3537" x="537.365723" y="0" width="1052.3622" height="744.09448" xlink:href="#path3457"/>
     <use id="use3539" x="597.072998" y="0" width="1052.3622" height="744.09448" xlink:href="#path3457"/>
     <use id="use3541" x="656.780273" y="0" width="1052.3622" height="744.09448" xlink:href="#path3457"/>
     <use id="use3543" x="716.48761" y="0" width="1052.3622" height="744.09448" xlink:href="#path3457"/>
     <use id="use3545" x="776.194885" y="0" width="1052.3622" height="744.09448" xlink:href="#path3457"/>
     <use id="use3547" x="835.902222" y="0" width="1052.3622" height="744.09448" xlink:href="#path3457"/>
     <use id="use3549" x="895.609497" y="0" width="1052.3622" height="744.09448" xlink:href="#path3457"/>
     <use id="use3551" x="955.316772" y="0" width="1052.3622" height="744.09448" xlink:href="#path3457"/>
     <use id="use3553" x="1015.024109" y="0" width="1052.3622" height="744.09448" xlink:href="#path3457"/>
    </g>
   </g>
  </g>
  <text fill="#000000" stroke="#000000" stroke-width="0" x="210.637817" y="344.905518" id="svg_1" font-size="24" font-family="Arial" text-anchor="middle" xml:space="preserve" transform="matrix(48.14285659790039,0,0,1,-9617.14274597168,0) "/>
  <text fill="#000000" stroke="#000000" stroke-width="0" stroke-dasharray="null" stroke-linejoin="null" stroke-linecap="null" x="356.637817" y="310.905518" id="svg_2" font-size="24" font-family="Arial" text-anchor="middle" xml:space="preserve" transform="matrix(52.06961098046759,0,0,3.2352941036224365,-18059.351131638694,-637.0588195323944) "/>
  <text fill="#000000" stroke="#000000" stroke-width="0" stroke-dasharray="null" stroke-linejoin="null" stroke-linecap="null" x="392.637817" y="339.905518" id="svg_3" font-size="24" font-family="Arial" text-anchor="middle" xml:space="preserve"/>
 </g>
</svg>